<?xml version="1.0" standalone="no"?>
<!DOCTYPE svg PUBLIC "-//W3C//DTD SVG 20010904//EN"
 "http://www.w3.org/TR/2001/REC-SVG-20010904/DTD/svg10.dtd">
<svg version="1.0" xmlns="http://www.w3.org/2000/svg"
 width="860.000000pt" height="780.000000pt" viewBox="0 0 860.000000 780.000000"
 preserveAspectRatio="xMidYMid meet">

<g transform="translate(0.000000,780.000000) scale(0.100000,-0.100000)"
fill="#000000" stroke="none">
<path d="M6314 7376 c-11 -11 -33 -30 -48 -41 l-28 -20 22 -74 c21 -73 22 -73
52 -67 17 3 37 6 45 6 11 0 14 12 12 53 -2 28 1 52 6 52 13 0 128 -14 183 -22
l44 -6 -15 29 c-13 25 -33 36 -122 67 -58 21 -112 40 -118 42 -7 1 -21 -7 -33
-19z"/>
<path d="M6135 7310 c-33 -10 -190 -77 -350 -149 -159 -73 -465 -211 -680
-308 -214 -97 -392 -178 -394 -180 -6 -4 -68 -264 -74 -311 -7 -54 -3 -51 94
72 l74 94 205 89 c113 49 432 188 709 309 l504 219 -68 8 c-65 7 -77 5 -208
-39 -76 -25 -141 -44 -143 -42 -2 2 61 39 139 83 123 68 257 157 257 171 0 2
-1 4 -2 3 -2 0 -30 -9 -63 -19z"/>
<path d="M6614 7174 c-9 -4 -7 -29 7 -92 11 -48 18 -90 17 -94 -2 -4 -31 33
-66 83 l-64 89 -54 0 -54 0 232 -465 c128 -256 235 -465 239 -465 3 0 12 22
21 49 17 53 11 104 -26 224 -9 26 -12 46 -7 43 4 -3 45 -62 92 -132 l84 -128
3 61 c3 61 3 62 -184 447 -194 401 -193 399 -240 380z"/>
<path d="M6268 7005 c-14 -8 -53 -22 -84 -30 -57 -15 -58 -15 -83 9 l-26 25
-62 -28 c-35 -15 -66 -30 -69 -34 -3 -3 14 -10 37 -16 24 -6 76 -27 115 -46
38 -19 75 -35 81 -35 6 0 35 11 65 24 l55 24 68 -126 c38 -70 86 -158 107
-196 21 -38 37 -70 36 -71 -16 -10 -110 -45 -123 -45 -8 0 -38 11 -65 25 l-49
25 29 62 30 62 -22 23 c-21 22 -28 23 -123 21 l-100 -3 -15 -33 c-16 -35 -30
-37 -93 -13 l-28 11 21 40 c20 39 20 42 4 70 -24 40 -100 70 -178 70 -55 0
-92 -12 -370 -125 -220 -89 -332 -139 -386 -175 l-78 -51 8 -35 c7 -32 6 -36
-17 -45 -13 -5 -30 -9 -37 -9 -7 0 -15 -3 -18 -6 -9 -9 241 -516 270 -546 20
-22 35 -28 66 -28 44 0 51 -4 79 -36 18 -22 18 -22 -22 -45 -23 -12 -41 -25
-41 -28 0 -12 73 -126 107 -167 l35 -43 -79 -51 c-43 -27 -82 -50 -86 -50 -7
0 -70 126 -242 485 -168 351 -234 485 -239 485 -12 0 -97 -155 -93 -170 4 -15
501 -875 516 -892 3 -4 53 -1 111 7 58 8 168 17 245 21 104 4 179 15 290 40
82 18 150 32 152 31 1 -2 48 -97 104 -213 100 -207 101 -209 92 -256 -5 -27
-6 -48 -2 -48 4 0 51 9 104 20 53 11 99 20 101 20 2 0 15 22 28 49 20 39 42
60 111 107 l87 59 -38 17 c-21 9 -41 15 -44 14 -3 -2 -59 -35 -126 -74 -66
-40 -125 -72 -130 -72 -11 0 -64 155 -64 187 0 12 9 49 20 84 27 87 130 219
189 243 23 9 43 16 46 16 2 0 40 -61 85 -135 45 -74 86 -133 91 -129 5 3 18
-5 28 -17 l19 -23 56 47 c42 36 77 56 143 78 l88 30 75 -81 c68 -74 78 -81
113 -80 23 0 37 -5 37 -12 0 -7 -19 -46 -43 -87 l-42 -75 -105 -45 c-58 -24
-107 -46 -108 -47 -2 -1 19 -35 47 -75 34 -47 51 -83 52 -103 0 -17 3 -49 7
-71 l7 -39 63 77 c53 65 145 139 156 126 2 -2 36 -50 75 -107 l72 -103 -2 -69
c-3 -87 7 -101 111 -175 44 -31 80 -62 80 -68 0 -6 -9 -55 -21 -109 l-21 -98
22 -67 c13 -38 26 -72 30 -76 10 -11 34 51 61 155 17 68 20 98 14 168 l-6 85
-85 86 -85 85 -7 129 -7 130 -95 74 -95 73 7 99 8 99 -41 82 c-23 46 -67 116
-97 157 l-56 73 -86 -5 c-69 -4 -109 -13 -209 -51 -69 -25 -127 -46 -131 -46
-7 0 -154 309 -149 313 2 2 99 54 214 116 l210 112 71 135 c40 74 67 134 62
134 -5 0 -155 -69 -331 -153 -177 -84 -532 -252 -788 -372 -256 -121 -462
-222 -457 -223 5 -2 64 4 131 13 116 16 139 24 461 151 186 74 341 134 345
134 12 0 33 -52 24 -60 -11 -9 -273 -119 -393 -165 -52 -20 -175 -70 -272
-112 l-177 -76 -96 63 c-53 35 -92 66 -88 70 8 8 148 80 583 303 453 231 645
325 710 346 99 32 98 31 63 93 l-31 53 -48 -3 c-32 -2 -56 2 -69 12 -20 14
-20 15 3 61 29 59 23 94 -25 141 -24 24 -32 40 -28 54 11 36 -63 189 -127 260
-48 54 -60 74 -69 120 -9 46 -16 59 -45 78 -18 12 -35 22 -36 22 -2 -1 -15 -7
-30 -15z"/>
<path d="M5945 5043 c-90 -45 -91 -45 -132 -122 -22 -42 -61 -139 -86 -217
l-45 -140 9 -155 c6 -103 6 -203 -1 -303 -13 -182 -14 -303 -2 -336 l9 -24 7
28 c4 16 41 103 82 193 68 150 150 294 228 398 41 55 152 172 204 216 24 20
70 73 101 117 49 69 57 85 53 116 -2 20 -9 36 -15 36 -6 0 -43 -9 -81 -19 -39
-11 -89 -24 -112 -30 -34 -9 -54 -27 -131 -119 -50 -59 -111 -139 -135 -177
l-43 -70 -3 104 c-2 87 1 118 24 199 15 53 31 102 36 108 4 6 36 17 71 24 66
13 160 49 155 59 -11 24 -94 161 -98 160 -3 0 -46 -21 -95 -46z"/>
<path d="M1632 4964 c-170 -56 -384 -176 -457 -256 -108 -118 -146 -200 -175
-383 -19 -120 3 -341 44 -440 l15 -36 33 22 c64 42 93 87 200 303 104 211 187
293 348 345 48 15 149 17 183 3 59 -25 27 -85 -118 -221 -272 -254 -339 -346
-338 -461 1 -51 24 -130 38 -130 3 0 32 28 63 62 162 175 386 293 654 344 168
32 233 7 221 -84 -7 -60 -18 -79 -45 -87 -37 -11 -210 -75 -248 -92 -223 -100
-333 -173 -473 -311 -50 -49 -49 -64 2 -37 17 8 66 29 108 45 43 16 114 43
158 60 66 25 238 84 380 129 208 67 488 131 667 152 132 15 282 9 304 -12 17
-18 22 -54 10 -81 -7 -15 -3 -18 17 -18 41 0 157 -29 197 -50 41 -21 80 -86
80 -133 0 -16 8 -30 19 -37 20 -10 61 -14 61 -5 0 2 7 30 15 61 22 83 11 128
-42 186 -28 29 -65 55 -100 70 l-55 23 6 47 c14 102 -49 148 -214 156 l-95 4
3 78 c6 124 -40 246 -143 385 -141 189 -288 285 -415 270 -75 -9 -83 -18 -64
-63 20 -48 41 -70 151 -158 123 -98 143 -130 150 -233 l6 -81 -78 0 c-138 0
-251 27 -394 93 -78 36 -184 67 -229 67 l-33 0 19 38 c75 142 61 222 -47 256
-61 20 -187 42 -285 51 -73 7 -78 9 -60 22 31 25 83 45 199 79 l110 31 -40 18
c-41 17 -143 35 -205 34 -19 0 -68 -11 -108 -25z"/>
<path d="M6517 4332 l-114 -127 -167 -90 c-110 -59 -193 -112 -242 -153 -41
-35 -74 -67 -74 -71 0 -4 27 -20 60 -36 33 -16 60 -32 60 -36 0 -4 -15 -17
-33 -28 -19 -11 -51 -34 -72 -51 -32 -26 -202 -113 -315 -163 -19 -8 -60 -26
-91 -40 -30 -13 -80 -30 -110 -37 -30 -6 -123 -34 -207 -61 -152 -48 -398
-163 -536 -248 -199 -123 -363 -239 -446 -314 -52 -48 -98 -86 -101 -87 -3 0
-13 27 -22 60 -67 241 -221 404 -538 569 -33 17 -52 37 -70 70 -30 57 -73 87
-147 101 -31 6 -65 14 -74 16 -25 7 -108 -76 -108 -108 0 -45 35 -65 234 -132
207 -70 249 -94 370 -213 116 -116 169 -201 200 -324 20 -81 20 -109 1 -279
-20 -175 -51 -326 -74 -359 -39 -56 -43 -56 86 -4 26 10 103 134 103 165 0 7
39 54 88 104 48 50 119 129 157 174 72 85 232 236 333 313 72 56 160 117 167
117 7 0 -66 -116 -122 -195 -44 -62 -77 -105 -226 -295 -49 -61 -87 -113 -85
-115 2 -1 49 27 106 64 98 62 112 77 278 270 95 113 174 208 174 212 0 18 181
188 250 235 72 50 240 141 326 177 107 45 254 91 482 152 l164 43 91 -31 c51
-17 94 -32 96 -34 3 -2 -30 -38 -72 -81 -70 -71 -77 -81 -77 -117 0 -46 5 -54
45 -81 54 -37 119 -55 210 -60 75 -5 106 -2 185 19 120 31 253 83 389 152 157
79 144 60 146 217 l2 135 -93 53 -93 54 6 76 c5 68 3 81 -20 127 -15 28 -49
77 -78 110 -66 76 -89 121 -89 180 0 26 -9 67 -20 91 l-19 42 -80 0 -79 0
-115 -128z"/>
<path d="M7046 4413 c-3 -3 10 -25 29 -48 34 -40 35 -46 43 -158 9 -121 20
-152 66 -182 25 -17 126 -33 126 -21 0 4 -15 35 -34 69 -24 44 -35 80 -40 125
-7 78 -40 156 -76 182 -28 20 -105 42 -114 33z"/>
<path d="M7610 4000 c-1 -3 -5 -57 -10 -120 -7 -94 -14 -127 -38 -181 -32 -70
-51 -169 -34 -169 27 0 73 39 100 85 59 100 64 163 22 294 -18 57 -38 103 -40
91z"/>
<path d="M7394 3869 c-4 -7 -10 -48 -12 -91 -4 -74 -3 -80 28 -128 18 -27 36
-50 40 -50 25 0 38 150 17 200 -20 46 -62 86 -73 69z"/>
<path d="M7541 3461 c-17 -28 -31 -57 -31 -64 0 -6 12 -32 26 -57 15 -27 23
-53 20 -66 -10 -40 -87 -99 -170 -129 l-78 -28 -38 44 c-22 24 -39 49 -40 56
0 6 30 32 66 58 36 26 64 48 62 50 -2 2 -37 -3 -77 -11 -45 -9 -163 -50 -291
-103 l-216 -88 -164 -22 c-91 -11 -186 -28 -212 -36 -81 -24 -157 -28 -242
-11 -92 18 -84 24 -141 -90 -32 -63 -90 -244 -79 -244 9 0 119 62 166 94 45
30 98 107 98 142 0 11 18 14 78 16 42 1 91 1 107 0 254 -13 338 5 604 128 l93
44 38 -42 c54 -59 119 -86 190 -77 30 4 64 12 75 18 61 32 185 121 220 156
l39 41 -3 77 c-2 57 -8 88 -26 122 -41 78 -39 78 -74 22z"/>
<path d="M2837 3470 c-64 -8 -159 -37 -252 -75 -22 -10 -85 -45 -140 -78 -223
-136 -433 -337 -524 -501 -45 -81 -75 -166 -59 -166 3 0 40 16 83 35 43 20 80
34 82 31 3 -2 -5 -51 -17 -109 -28 -139 -19 -178 58 -256 100 -104 151 -192
234 -411 76 -202 131 -294 224 -379 80 -73 136 -107 350 -212 193 -94 254
-130 362 -212 35 -27 65 -47 67 -45 10 12 46 131 42 142 -3 7 -32 20 -65 29
-98 27 -171 97 -195 186 -4 18 -9 19 -38 11 -19 -6 -63 -10 -100 -10 -56 0
-69 3 -88 24 -28 30 -51 105 -51 166 0 46 -2 48 -52 83 -120 80 -275 264 -338
400 -128 278 -132 570 -11 823 83 174 315 358 567 448 53 19 128 63 117 69
-17 10 -191 15 -256 7z"/>
<path d="M2205 3361 c-16 -4 -67 -27 -112 -49 -46 -23 -88 -42 -94 -42 -8 0
-10 14 -6 45 l7 45 -50 0 c-47 0 -53 -3 -122 -67 -221 -208 -272 -317 -191
-413 l25 -31 87 84 c119 114 370 315 504 403 20 13 37 26 37 29 0 7 -49 4 -85
-4z"/>
<path d="M1335 3238 c-117 -164 -196 -388 -180 -509 8 -58 26 -81 80 -98 78
-26 134 -84 155 -161 5 -19 14 -69 20 -110 15 -110 43 -165 98 -191 49 -24
133 -30 237 -16 l60 8 70 -143 c154 -312 243 -416 567 -660 69 -53 144 -109
165 -126 82 -66 290 -238 329 -271 22 -20 52 -45 65 -55 13 -11 67 -58 119
-105 174 -155 380 -306 486 -356 116 -54 141 -54 296 -2 73 25 162 51 196 57
191 34 327 105 518 269 368 318 735 678 918 898 154 185 228 329 296 576 49
174 113 307 211 435 l40 52 -58 -26 c-32 -14 -78 -34 -103 -45 -43 -19 -48
-25 -110 -152 -81 -165 -202 -395 -245 -467 -18 -30 -63 -107 -100 -170 -66
-113 -167 -266 -265 -405 -133 -186 -342 -393 -587 -578 -33 -26 -63 -47 -66
-47 -3 0 -35 -18 -71 -40 -36 -22 -94 -54 -128 -71 l-63 -30 -177 12 c-204 14
-238 9 -286 -46 -17 -19 -39 -59 -48 -90 l-18 -55 -35 6 c-156 25 -152 22
-236 149 -56 84 -245 276 -370 376 -96 77 -160 116 -348 214 -89 46 -181 94
-204 107 -57 32 -149 122 -282 272 -49 56 -231 331 -264 400 -66 134 -124 305
-161 469 -5 22 -12 27 -35 27 -25 0 -34 -9 -70 -69 -34 -58 -39 -74 -32 -95
11 -29 4 -37 -51 -56 -31 -12 -40 -11 -61 3 -26 17 -55 87 -52 122 1 11 8 48
15 82 16 79 9 156 -17 191 -11 15 -65 50 -119 77 -87 44 -101 54 -111 85 -7
19 -10 53 -7 75 6 43 79 206 114 254 23 33 21 36 -36 46 -37 6 -44 3 -59 -17z"/>
<path d="M5624 2562 c-121 -74 -146 -94 -182 -144 -23 -32 -42 -62 -42 -66 0
-5 -9 -17 -19 -26 -11 -10 -40 -48 -65 -84 -188 -275 -406 -512 -632 -687 -81
-62 -465 -281 -482 -273 -4 1 -1 38 7 81 13 74 16 80 52 105 178 121 275 208
352 317 l40 57 -34 -17 c-19 -10 -72 -39 -119 -66 -75 -43 -205 -101 -461
-208 -71 -29 -77 -35 -99 -81 -50 -107 -150 -201 -355 -332 -63 -40 -114 -77
-115 -81 0 -13 64 -116 72 -117 4 0 33 17 65 38 131 87 235 95 329 25 l31 -23
143 30 c78 17 144 29 146 27 2 -2 -10 -42 -28 -90 -17 -48 -28 -90 -25 -94 11
-11 197 56 326 118 106 51 171 94 242 159 37 34 157 181 204 249 28 40 74 104
103 143 57 75 142 204 142 215 0 3 6 14 14 22 7 9 73 122 146 251 73 129 172
294 220 365 97 145 173 266 168 270 -2 1 -66 -36 -144 -83z"/>
<path d="M2742 2078 c54 -97 182 -210 321 -283 73 -39 77 -42 99 -100 l24 -60
99 -3 c125 -4 207 19 291 81 108 79 107 81 -26 73 l-115 -7 60 36 c77 46 116
85 144 139 23 48 48 153 37 163 -3 3 -50 -8 -103 -25 -189 -61 -281 -75 -440
-68 -168 7 -221 17 -328 62 -43 19 -81 34 -83 34 -2 0 7 -19 20 -42z"/>
</g>
</svg>
